Coordinates
version=1
nRows=17
nColumns=34
inDegrees=yes

Units are S.I. units (second, meters, Newtons, ...)
Angles are in degrees.

endheader
time	pelvis_tilt	pelvis_list	pelvis_rotation	pelvis_tx	pelvis_ty	pelvis_tz	hip_flexion_r	hip_adduction_r	hip_rotation_r	knee_angle_r	ankle_angle_r	subtalar_angle_r	mtp_angle_r	hip_flexion_l	hip_adduction_l	hip_rotation_l	knee_angle_l	socket_flexion	socket_adduction	socket_rotation	socket_tx	socket_ty	socket_tz	pros_ankle_rx	pros_ankle_ry	pros_ankle_rz	pros_ankle_tx	pros_ankle_ty	pros_ankle_tz	foot_flex	lumbar_extension	lumbar_bending	lumbar_rotation
      0.00000000	     -0.23157361	     -9.91883604	      4.90143740	     -0.77410964	      1.02899018	      0.38511269	    -22.83714324	     13.85133579	    -13.30594808	      2.61970380	      2.96222692	     24.72584516	     30.32026992	     26.39133404	     -8.05680152	      7.29853265	     -1.33358580	      3.25471409	      0.00000000	      0.00000000	      0.00000000	      0.00334896	      0.00000000	      0.00000000	      0.00000000	      0.00000000	      0.00000000	      0.00000000	      0.00000000	      2.24243977	    -10.32208186	      5.96613586	    -16.53170623
      0.00416667	     -0.25200943	     -9.90947052	      4.82743135	     -0.76901671	      1.02802812	      0.38493443	    -23.04711339	     13.78541479	    -13.24494929	      2.46082798	      2.96481292	     24.74657596	     30.33313116	     26.48191621	     -8.02384070	      7.34552195	     -1.60968698	      3.57663931	      0.00000000	      0.00000000	      0.00000000	      0.00254341	      0.00000000	      0.00000000	      0.00000000	      0.00000000	      0.00000000	      0.00000000	      0.00000000	      1.84120403	    -10.29746351	      5.87844097	    -16.50838864
      0.00833333	     -0.26644726	     -9.89795650	      4.74906427	     -0.76369501	      1.02704258	      0.38474345	    -23.26883709	     13.71171261	    -13.18822878	      2.28805259	      2.96633790	     24.76327526	     30.34799219	     26.56860404	     -7.99008827	      7.37531492	     -1.90915358	      3.90950480	      0.00000000	      0.00000000	      0.00000000	      0.00166266	      0.00000000	      0.00000000	      0.00000000	      0.00000000	      0.00000000	      0.00000000	      0.00000000	      1.45034570	    -10.26339912	      5.79433606	    -16.48492905
      0.01250000	     -0.31681156	     -9.86883025	      4.63761886	     -0.75817596	      1.02605733	      0.38462055	    -23.43906566	     13.60593816	    -13.09355913	      2.07759934	      2.99918018	     24.78869686	     30.39544292	     26.65034917	     -7.95957427	      7.43541849	     -2.16537432	      4.25106569	      0.00000000	      0.00000000	      0.00000000	      0.00079117	      0.00000000	      0.00000000	      0.00000000	      0.00000000	      0.00000000	      0.00000000	      0.00000000	      0.96804194	    -10.27113427	      5.62348866	    -16.41718460
      0.01666667	     -0.36350817	     -9.81979277	      4.49464675	     -0.75250159	      1.02510614	      0.38455991	    -23.58472502	     13.46241668	    -13.00068274	      1.79324394	      3.05188414	     24.80819091	     30.49528901	     26.71867608	     -7.92371475	      7.41203228	     -2.44989678	      4.59174243	      0.00000000	      0.00000000	      0.00000000	     -0.00012661	      0.00000000	      0.00000000	      0.00000000	      0.00000000	      0.00000000	      0.00000000	      0.00000000	      0.51748352	    -10.26081103	      5.42649081	    -16.29892122
      0.02083333	     -0.37394683	     -9.79602717	      4.39179903	     -0.74666850	      1.02413034	      0.38439005	    -23.82573797	     13.35934159	    -12.96650277	      1.60539745	      3.03875375	     24.81562267	     30.51771978	     26.78953263	     -7.89651018	      7.42559986	     -2.80834121	      4.93200281	      0.00000000	      0.00000000	      0.00000000	     -0.00103075	      0.00000000	      0.00000000	      0.00000000	      0.00000000	      0.00000000	      0.00000000	      0.00000000	      0.19397480	    -10.20668103	      5.37059905	    -16.27704184
      0.02500000	     -0.44366485	     -9.70369796	      4.18431168	     -0.74082942	      1.02323975	      0.38437222	    -23.64781367	     13.05319402	    -13.25030612	      0.79127499	      3.05882343	     25.39495966	     33.06602830	     26.85891521	     -7.84156314	      7.26733541	     -3.20440806	      5.13159202	      0.00000000	      0.00000000	      0.00000000	     -0.00194251	      0.00000000	      0.00000000	      0.00000000	      0.00000000	      0.00000000	      0.00000000	      0.00000000	     -0.32285502	    -10.18754966	      5.03643509	    -15.93853877
      0.02916667	     -0.45415238	     -9.67545951	      4.10431342	     -0.73485694	      1.02229637	      0.38413834	    -23.88347199	     12.95203858	    -13.20617534	      0.60840648	      3.02574574	     25.39354038	     33.07420229	     26.93345862	     -7.80121530	      7.28979864	     -3.59101095	      5.48839194	      0.00000000	      0.00000000	      0.00000000	     -0.00295666	      0.00000000	      0.00000000	      0.00000000	      0.00000000	      0.00000000	      0.00000000	      0.00000000	     -0.64759725	    -10.14483179	      4.97680131	    -15.93131535
      0.03333333	     -0.49927523	     -9.61129459	      4.03589513	     -0.72891954	      1.02136987	      0.38389582	    -24.00145368	     12.80553211	    -13.10001314	      0.27409434	      2.93796786	     25.34858501	     33.13131480	     27.04360089	     -7.71744940	      7.31170524	     -3.98309562	      5.85263116	      0.00000000	      0.00000000	      0.00000000	     -0.00392778	      0.00000000	      0.00000000	      0.00000000	      0.00000000	      0.00000000	      0.00000000	      0.00000000	     -1.00013500	    -10.21038701	      4.70756947	    -15.88758985
      0.03750000	     -0.50217269	     -9.57410083	      3.97623415	     -0.72283170	      1.02052057	      0.38364082	    -24.22228310	     12.69935985	    -13.05077805	      0.04806706	      2.89084528	     25.33525954	     33.15255032	     27.10131768	     -7.66795162	      7.29658583	     -4.39396891	      6.20195662	      0.00000000	      0.00000000	      0.00000000	     -0.00500699	      0.00000000	      0.00000000	      0.00000000	      0.00000000	      0.00000000	      0.00000000	      0.00000000	     -1.27360014	    -10.15181664	      4.63321270	    -15.87596513
      0.04166667	     -0.53791514	     -9.47659997	      3.87767509	     -0.71692134	      1.01976459	      0.38345027	    -24.25288693	     12.48982323	    -12.96989496	     -0.43437675	      2.73215109	     25.22403452	     33.27319491	     27.20054148	     -7.57204269	      7.24840486	     -4.85349484	      6.54035315	      0.00000000	      0.00000000	      0.00000000	     -0.00579704	      0.00000000	      0.00000000	      0.00000000	      0.00000000	      0.00000000	      0.00000000	      0.00000000	     -1.47344397	    -10.24211826	      4.29491070	    -15.81892171
      0.04583333	     -0.60042089	     -9.37907941	      3.66306268	     -0.71085997	      1.01915040	      0.38342420	    -24.13989628	     12.20449219	    -12.91272058	     -1.14841582	      2.70630477	     25.05219242	     34.02281152	     27.24171805	     -7.53570257	      7.01547576	     -5.26582932	      6.82213679	      0.00000000	      0.00000000	      0.00000000	     -0.00670016	      0.00000000	      0.00000000	      0.00000000	      0.00000000	      0.00000000	      0.00000000	      0.00000000	     -1.71127329	    -10.18106095	      4.04230603	    -15.59269639
      0.05000000	     -0.59317771	     -9.32922388	      3.65471895	     -0.70475574	      1.01846658	      0.38308930	    -24.34201545	     12.10427870	    -12.83739540	     -1.38837667	      2.61902163	     25.05015411	     34.06219093	     27.29819210	     -7.45978728	      7.01453430	     -5.73147716	      7.16783250	      0.00000000	      0.00000000	      0.00000000	     -0.00782962	      0.00000000	      0.00000000	      0.00000000	      0.00000000	      0.00000000	      0.00000000	      0.00000000	     -1.90104429	    -10.13701098	      3.95596726	    -15.59208735
      0.05416667	     -0.59431753	     -9.27584920	      3.63723537	     -0.69866999	      1.01782420	      0.38270445	    -24.50927184	     11.98925040	    -12.76667934	     -1.67268253	      2.49656371	     25.02234930	     34.10062653	     27.34626586	     -7.38212422	      7.02625195	     -6.19380794	      7.48484281	      0.00000000	      0.00000000	      0.00000000	     -0.00891848	      0.00000000	      0.00000000	      0.00000000	      0.00000000	      0.00000000	      0.00000000	      0.00000000	     -2.02498426	    -10.11772439	      3.82730027	    -15.59677729
      0.05833333	     -0.74139555	     -9.12933340	      3.54015602	     -0.69281925	      1.01715678	      0.38251434	    -24.02215312	     11.63051010	    -13.14259008	     -2.73936772	      1.81646506	     24.89287340	     38.77267511	     27.58551784	     -7.22877943	      6.91281544	     -6.92648038	      7.54120498	      0.00000000	      0.00000000	      0.00000000	     -0.00942548	      0.00000000	      0.00000000	      0.00000000	      0.00000000	      0.00000000	      0.00000000	      0.00000000	     -2.01964900	    -10.15409027	      3.38829689	    -15.62035973
      0.06250000	     -0.71940149	     -9.07128150	      3.56788491	     -0.68669973	      1.01670640	      0.38209276	    -24.20015471	     11.53297387	    -13.05425507	     -3.02214730	      1.70200618	     24.86730757	     38.77689848	     27.59567451	     -7.13999541	      6.90968048	     -7.38612277	      7.85137170	      0.00000000	      0.00000000	      0.00000000	     -0.01049186	      0.00000000	      0.00000000	      0.00000000	      0.00000000	      0.00000000	      0.00000000	      0.00000000	     -2.13291526	    -10.10292853	      3.29130683	    -15.62590217
      0.06666667	     -0.75824916	     -8.96802176	      3.45791503	     -0.68093209	      1.01640051	      0.38196699	    -23.90788097	     11.26730910	    -13.07522062	     -3.99251840	      1.35366411	     24.36902320	     39.42548749	     27.69508223	     -7.06261742	      6.77406244	     -8.01670739	      8.03956878	      0.00000000	      0.00000000	      0.00000000	     -0.01101199	      0.00000000	      0.00000000	      0.00000000	      0.00000000	      0.00000000	      0.00000000	      0.00000000	     -1.99947820	    -10.24730790	      2.86203520	    -15.65876112
